<svg width="194" height="386" viewBox="0 0 194 386" fill="none" xmlns="http://www.w3.org/2000/svg">
<path d="M35.5445 296.642V107.628H0V90.6867C19.4886 76.0706 34.105 64.887 43.8493 57.136C53.5936 49.1635 62.7842 40.3052 71.4212 30.5611C80.2797 20.817 87.8094 10.6299 94.0103 0H111.616V86.7005H194V107.628H111.616V306.275C111.616 320.892 113.388 331.854 116.932 339.162C120.475 346.248 126.454 349.792 134.87 349.792C142.842 349.792 150.151 347.577 156.795 343.148C163.66 338.719 171.965 331.854 181.709 322.552L194 335.508C177.39 352.56 162.11 365.294 148.158 373.709C134.427 381.903 118.592 386 100.654 386C83.6016 386 70.3139 382.235 60.7911 374.706C51.2683 367.176 44.6244 356.989 40.8596 344.145C37.3162 331.079 35.5445 315.244 35.5445 296.642ZM68.0993 51.1566L46.1747 69.4268V289.998C46.1747 319.452 49.9395 340.933 57.4692 354.442C65.2203 367.73 78.9509 374.373 98.661 374.373C109.07 374.373 119.478 372.713 129.887 369.391C109.734 370.055 94.3425 365.404 83.7123 355.439C73.3037 345.252 68.0993 328.421 68.0993 304.947V51.1566Z" fill="white"/>
</svg>
